<svg id="Layer_1" data-name="Layer 1" xmlns="http://www.w3.org/2000/svg" viewBox="0 0 300 300">
    <title>
        -icon-color
    </title>
    <path d="M238.57,58.49v178H61.27a2.89,2.89,0,0,1-2-4.94l74.93-74.92v54.46H182.1c16.82,0,25.69-10.59,25.69-23.84,0-11.12-7.55-20.26-16.95-21.72,8.34-1.72,15.23-9.13,15.23-20.26,0-11.78-8.61-22.51-25.43-22.51H168l66.1-66.1A2.6,2.6,0,0,1,238.57,58.49ZM153,158.24h23.58c6.35,0,10.33-4.1,10.33-9.8,0-5.43-4-9.67-10.33-9.67H153Zm0,16v20.79H177.2c7.15,0,11.39-4.11,11.39-10.47,0-5.56-4-10.32-11.39-10.32Z" style="fill:#fff"/>
</svg>
