<svg height="64" viewBox="0 0 64 63.999999" width="64" xmlns="http://www.w3.org/2000/svg"><g transform="matrix(2.6666667 0 0 2.6666667 -55.296584 -50.523629)"><path d="m42.233717 23.611681a12 12 0 1 0 -2.16 16.83 12 12 0 0 0 2.16-16.83z" fill="#ff6c37"/><path d="m36.783717 26.591681-5.06 5.1-1.43-1.47c4.98-4.98 5.48-4.53 6.49-3.63z" fill="#fff"/><path d="m31.723717 31.831681a.18.18 0 0 1 -.12-.05l-1.44-1.44a.18.18 0 0 1 0-.25c4.91-4.91 5.58-4.68 6.74-3.63a.16.16 0 0 1 .06.13.14.14 0 0 1 -.05.13l-5.06 5.06a.19.19 0 0 1 -.13.05zm-1.18-1.61 1.18 1.18 4.8-4.8a1.08 1.08 0 0 0 -1.42-.24c-.87.39-2.27 1.58-4.56 3.86z" fill="#ff6c37"/><path d="m33.173717 33.101681-1.38-1.41 5.06-5c1.36 1.33-.66 3.55-3.68 6.41z" fill="#fff"/><path d="m33.173717 33.281681a.21.21 0 0 1 -.12-.05l-1.41-1.38a.21.21 0 0 1 0-.16.19.19 0 0 1 0-.13l5.06-5.06a.19.19 0 0 1 .26 0 1.55 1.55 0 0 1 .5 1.19c0 1.35-1.54 3.05-4.16 5.53a.21.21 0 0 1 -.13.06zm-1.12-1.59 1.13 1.13c2-1.89 3.91-3.84 3.92-5.16a1.14 1.14 0 0 0 -.26-.77z" fill="#ff6c37"/><path d="m30.333717 30.251681 1 1a.06.06 0 0 1 0 .09l-2.11.45a.2.2 0 0 1 -.18-.34l1.23-1.22s.04 0 .06.02z" fill="#fff"/><path d="m29.173717 31.991681a.39.39 0 0 1 -.33-.19.38.38 0 0 1 .07-.45l1.22-1.23a.24.24 0 0 1 .32 0l1 1a.22.22 0 0 1 .06.22.23.23 0 0 1 -.17.16l-2.11.45zm1.12-1.52-1.13 1.13 1.87-.4z" fill="#ff6c37"/><path d="m39.473717 23.781681a1.94 1.94 0 1 0 -.35 3.06l-1.36-1.36z" fill="#fff"/><path d="m38.123717 27.301681a2.12 2.12 0 0 1 -1.48-3.61 2.14 2.14 0 0 1 3 0 .17.17 0 0 1 0 .26l-1.62 1.53 1.23 1.21a.17.17 0 0 1 .05.15.18.18 0 0 1 -.08.13 2.17 2.17 0 0 1 -1.1.33zm0-3.88a1.76 1.76 0 0 0 -1.24 3 1.75 1.75 0 0 0 1.94.37l-1.18-1.18a.16.16 0 0 1 -.06-.13.16.16 0 0 1 .06-.12l1.56-1.57a1.79 1.79 0 0 0 -1.08-.37z" fill="#ff6c37"/><path d="m39.503717 23.811681-1.71 1.7 1.36 1.36a2.07 2.07 0 0 0 .38-.28 2 2 0 0 0 -.03-2.78z" fill="#fff"/><path d="m39.123717 27.021681a.15.15 0 0 1 -.12-.05l-1.36-1.36a.16.16 0 0 1 -.06-.13.16.16 0 0 1 .06-.12l1.7-1.67a.18.18 0 0 1 .3 0 2.1 2.1 0 0 1 0 3 1.82 1.82 0 0 1 -.4.32.16.16 0 0 1 -.12.01zm-1.1-1.54 1.13 1.13a1.92 1.92 0 0 0 .22-.18 1.77 1.77 0 0 0 .52-1.25 1.72 1.72 0 0 0 -.43-1.14z" fill="#ff6c37"/><path d="m36.993717 26.801681a.73.73 0 0 0 -1 0l-4.53 4.52.75.76 4.79-4.2a.74.74 0 0 0 -.01-1.08z" fill="#fff"/><path d="m32.173717 32.261681a.18.18 0 0 1 -.12-.05l-.76-.76a.18.18 0 0 1 0-.25l4.53-4.51a.92.92 0 0 1 1.3 0 .92.92 0 0 1 .27.68.94.94 0 0 1 -.31.66l-4.79 4.2a.17.17 0 0 1 -.12.03zm-.53-.94.5.51 4.7-4.09a.55.55 0 0 0 .19-.4.53.53 0 0 0 -.17-.41.56.56 0 0 0 -.79 0z" fill="#ff6c37"/><path d="m27.953717 36.471681a.1.1 0 0 0 0 .12l.2.87a.25.25 0 0 1 -.41.23l-1.37-1.32 4.27-4.3h1.48l1 1a22.69 22.69 0 0 1 -5.17 3.4z" fill="#fff"/><path d="m27.863717 37.941681a.43.43 0 0 1 -.3-.13l-1.31-1.31a.16.16 0 0 1 -.06-.13.16.16 0 0 1 .06-.12l4.3-4.31a.17.17 0 0 1 .09-.05h1.49a.18.18 0 0 1 .12 0l1 1a.16.16 0 0 1 .05.14.16.16 0 0 1 -.06.13l-.08.07a24.5 24.5 0 0 1 -5.13 3.29l.19.81a.43.43 0 0 1 -.41.53zm-1.22-1.57 1.18 1.19a.06.06 0 0 0 .08 0 .06.06 0 0 0 0-.07l-.2-.87a.28.28 0 0 1 .15-.32 24.59 24.59 0 0 0 5-3.22l-.82-.82h-1.34z" fill="#ff6c37"/><path d="m25.343717 37.401681 1-1 1.54 1.54-2.45-.17a.2.2 0 0 1 -.09-.37z" fill="#fff"/><path d="m27.913717 38.091681-2.44-.17a.38.38 0 0 1 -.24-.64l1-1a.18.18 0 0 1 .25 0l1.53 1.53a.17.17 0 0 1 0 .2.19.19 0 0 1 -.1.08zm-2.44-.56 2 .13-1.1-1.03z" fill="#ff6c37"/><path d="m11.62 13.5-2.02.31 1.17-1.16z" fill="#fff" transform="translate(20.643717 18.691681)"/><path d="m30.243717 32.691681a.17.17 0 0 1 -.16-.1.17.17 0 0 1 0-.2l1.16-1.17a.19.19 0 0 1 .26 0l.85.85a.17.17 0 0 1 0 .18.17.17 0 0 1 -.14.13l-2 .31zm1.17-1.09-.65.65 1.12-.17z" fill="#ff6c37"/><path d="m32.263717 32.191681-1.41.18a.18.18 0 0 1 -.17-.3l.73-.73z" fill="#fff"/><g fill="#ff6c37"><path d="m30.813717 32.561681a.37.37 0 0 1 -.32-.19.36.36 0 0 1 .06-.43l.73-.73a.19.19 0 0 1 .26 0l.85.85a.18.18 0 0 1 -.11.31l-1.4.18zm0-.37 1.06-.13-.47-.47-.6.6z"/><path d="m39.513717 24.961681a.15.15 0 0 0 -.19-.06.14.14 0 0 0 -.06.19.43.43 0 0 1 -.05.45.13.13 0 0 0 0 .19.11.11 0 0 0 .08 0 .13.13 0 0 0 .13-.04.69.69 0 0 0 .09-.73z"/></g></g></svg>