<svg height="64" viewBox="0 0 32 32" width="64" xmlns="http://www.w3.org/2000/svg" xmlns:xlink="http://www.w3.org/1999/xlink"><linearGradient id="a" gradientUnits="userSpaceOnUse" x1="811.52658" x2="665.254798" y1="574.894683" y2="573.731833"><stop offset="0" stop-color="#366a96"/><stop offset="1" stop-color="#3679b0"/></linearGradient><linearGradient id="b" gradientUnits="userSpaceOnUse" x1="862.82446" x2="573.275998" y1="642.17587" y2="642.17587"><stop offset="0" stop-color="#ffc836"/><stop offset="1" stop-color="#ffe873"/></linearGradient><g transform="matrix(.16170032 0 0 .1580885 -107.53764 -81.66207)"><path d="m716.25486 544.48686c0-13.62285 3.65276-21.03425 23.82234-24.56348 13.69344-2.39988 31.25139-2.69987 47.62704 0 12.93465 2.13518 23.82234 11.77 23.82234 24.56348v44.94482c0 13.1817-10.57006 23.98116-23.82234 23.98116h-47.62704c-16.1639 0-29.78675 13.78166-29.78675 29.36324v21.56363h-16.37565c-13.85226 0-21.91656-9.98773-25.30463-23.96351-4.57036-18.77553-4.37625-29.96321 0-47.94467 3.79393-15.68745 15.91686-23.96351 29.76911-23.96351h17.87558 47.64468v-5.9997h-47.64468z" fill="url(#a)"/><path d="m811.52658 688.32087c0 13.62285-11.82294 20.52251-23.82234 23.96351-18.05204 5.18798-32.53955 4.3939-47.62704 0-12.59937-3.6704-23.82234-11.17003-23.82234-23.96351v-44.94482c0-12.93465 10.78181-23.98116 23.82234-23.98116h47.62704c15.86392 0 29.78675-13.71108 29.78675-29.96321v-20.96366h17.85794c13.86989 0 20.39898 10.30537 23.82234 23.96351 4.76447 18.96964 4.97622 33.15717 0 47.94467-4.81741 14.36399-9.97009 23.96351-23.82234 23.96351h-23.82235-47.62704v5.9997h47.62704z" fill="url(#b)"/><g fill="#fff"><path d="m728.16603 541.50465c0-4.97622 3.98804-8.99955 8.92897-8.99955 4.92328 0 8.92896 4.02333 8.92896 8.99955 0 4.95858-4.00568 8.98191-8.92896 8.98191-4.94093 0-8.92897-4.02333-8.92897-8.98191z"/><path d="m781.75748 691.30308c0-4.95858 4.00568-8.98191 8.92897-8.98191 4.94093 0 8.92896 4.02333 8.92896 8.98191 0 4.97622-3.98803 8.99955-8.92896 8.99955-4.92329 0-8.92897-4.02333-8.92897-8.99955z"/></g></g></svg>